<?xml version="1.0" encoding="UTF-8" standalone="no"?>
<!-- Created with Inkscape (http://www.inkscape.org/) -->

<svg
   version="1.1"
   id="svg2"
   width="1246.1333"
   height="1385.6267"
   viewBox="0 0 1246.1333 1385.6267"
   sodipodi:docname="299_grim.eps"
   xmlns:inkscape="http://www.inkscape.org/namespaces/inkscape"
   xmlns:sodipodi="http://sodipodi.sourceforge.net/DTD/sodipodi-0.dtd"
   xmlns="http://www.w3.org/2000/svg"
   xmlns:svg="http://www.w3.org/2000/svg">
  <defs
     id="defs6" />
  <sodipodi:namedview
     id="namedview4"
     pagecolor="#ffffff"
     bordercolor="#000000"
     borderopacity="0.25"
     inkscape:showpageshadow="2"
     inkscape:pageopacity="0.0"
     inkscape:pagecheckerboard="0"
     inkscape:deskcolor="#d1d1d1" />
  <g
     id="g8"
     inkscape:groupmode="layer"
     inkscape:label="ink_ext_XXXXXX"
     transform="matrix(1.3333333,0,0,-1.3333333,0,1385.6267)">
    <g
       id="g10"
       transform="scale(0.1)">
      <path
         d="m 6921.29,5717.84 c 0,0 610.02,-1665.63 265.04,-3032.84 l -70.67,-139.18 123.65,-119.36 c 0,0 133.32,-1644.097 793.73,-1362.71 0,0 201.75,-450.43 -136.38,-687.09 -149.59,-104.695 -270.48,-169.031 -659.25,-169.031 -130.22,0 -405.74,253.574 -507.14,524.051 33.8,-270.477 152.12,-456.414 253.52,-591.668 -1200.13,-354.992 -4457.25,16.472 -6183.571,539.57 0,0 -768.8635,388.548 -800.219,1342.248 406.355,85.09 820.715,-150.29 925.723,-335.57 -47.039,-211.91 -282.387,-388.55 -282.387,-388.55 0,0 33.605,412.81 -15.719,529.87 -102.168,43.25 -279.359,-127.13 -298.109,-282.6 172.574,-759.421 1105.622,-441.5 1105.622,-441.5 0,0 282.67,457.38 759.71,0 0,0 588.47,660.81 1010.43,362.98 0,0 898.82,920.25 1040.16,979.9 l 123.67,79.55 -52.97,119.3 c 0,0 1102.15,1359.52 423.96,3112.4 -90.69,234.35 2057.57,159.07 2181.2,-39.77"
         style="fill:#232221;fill-opacity:1;fill-rule:nonzero;stroke:none"
         id="path12" />
      <path
         d="m 7186.33,2685 c 3.24,17.53 -1725.24,-644.09 -2870.2,-39.79 l 52.97,-119.3 c 0,0 1063.44,-627.83 2746.56,19.91 0,0 57.13,66.95 70.67,139.18"
         style="fill:#1c1a1a;fill-opacity:1;fill-rule:nonzero;stroke:none"
         id="path14" />
      <path
         d="m 3003.26,1414.35 c 0,0 -477.03,-178.95 -512.32,-702.631 0,0 -125.29,264.91 -278.43,357.671 0,0 421.93,521.16 790.75,344.96"
         style="fill:#1c1b1a;fill-opacity:1;fill-rule:nonzero;stroke:none"
         id="path16" />
      <path
         d="m 4322.04,2495.64 c 0,0 -993.04,-485.22 -1137.68,-1127.15 0,0 182.55,-225.35 259.15,-550.217 0,0 589.98,1206.697 878.53,1677.367 v 0"
         style="fill:#1c1b1a;fill-opacity:1;fill-rule:nonzero;stroke:none"
         id="path18" />
      <path
         d="m 1913.77,1228.75 c 0,0 -312.16,-99.41 -288.59,-444.109 0,0 -589.57,-140.352 -1076.016,301.139 0,0 611.956,-141.257 869.896,-75.76 0,0 229.67,338.07 494.71,218.73"
         style="fill:#1c1b1a;fill-opacity:1;fill-rule:nonzero;stroke:none"
         id="path20" />
      <path
         d="m 2248.81,9130.7 801.5,168.87 c 0,0 2837.24,1413.13 5292.27,-642.73 0,0 870.24,-621.81 1003.4,-3988.56 0,0 -309.68,-789.22 -2264.67,-1099.62 -2370.83,-376.45 -3681.68,37.19 -3681.68,37.19 0,0 -528.79,329.32 -215.51,1376.23 0,0 -735.42,1417.71 -383.3,3070.85 0,0 -242.71,395.86 -965.02,459.93 0,0 -295.62,1172.03 465.47,1714.24 761.13,542.2 1135.95,-396.97 627.66,-729.62 -508.29,-332.7 -647.55,440.92 -213.98,396.68 0,0 -622.26,556.94 -466.14,-763.46"
         style="fill:#232221;fill-opacity:1;fill-rule:nonzero;stroke:none"
         id="path22" />
      <path
         d="m 9032.34,5181.56 c 0,0 -119.24,-1000.33 -2109.33,-1395.74 -1990.09,-395.43 -3342.61,44.38 -3501.29,372.34 0,0 519.1,1130.84 1135.39,1698.26 616.29,567.31 4216.2,1176.47 4475.23,-674.86"
         style="fill:#ed1d24;fill-opacity:1;fill-rule:nonzero;stroke:none"
         id="path24" />
      <path
         d="m 8894.18,5647.57 c 0,0 -119.25,-1000.34 -2109.36,-1395.74 -1990.09,-395.45 -3129.64,-283.2 -3288.3,44.76 0,0 306.14,1458.38 922.4,2025.77 616.25,567.38 4216.2,1176.54 4475.26,-674.79"
         style="fill:#b71d23;fill-opacity:1;fill-rule:nonzero;stroke:none"
         id="path26" />
      <path
         d="m 8813.96,6239.08 c 0,0 -114.12,-1000.13 -2035.96,-1393.44 -1921.85,-393.3 -3022.62,-279.89 -3176.26,48.23 0,0 294.18,1458.04 888.81,2024.74 594.66,566.69 4071.25,1172.06 4323.41,-679.53"
         style="fill:#8e191d;fill-opacity:1;fill-rule:nonzero;stroke:none"
         id="path28" />
      <path
         d="m 4160.41,4754.75 c 0,0 -253.89,-175.3 -210.74,-346.82 43.1,-171.59 333.21,-643.37 549.92,-663.64 216.72,-20.29 589.3,158.77 926.5,260.98 337.11,102.29 360.18,-118.44 360.18,-118.44 -51.26,84.81 -182.29,129.38 -251.26,89.44 -68.99,-39.98 -23.45,-114.19 -23.45,-114.19 159.89,-103.1 184.03,-361.65 184.03,-361.65 187.37,-118.41 307.3,20.35 307.3,20.35 0,0 -29.65,258.4 14.58,227.35 44.14,-31.06 45.15,-236.31 45.15,-236.31 110.11,-66.81 204.94,11.75 204.94,11.75 0,0 -22.19,366.64 19.6,411.17 41.84,44.52 24.2,-431.42 24.2,-431.42 55.94,-63.09 129.33,9.38 129.33,9.38 0,0 -12.87,415.58 19.88,405.84 32.66,-9.82 32.27,-344.79 32.27,-344.79 166.56,-146.05 268.18,62.36 268.18,62.36 -22.37,372.07 21,540.89 21,540.89 l 18.02,-231.73 c 240.71,250.49 380.78,-85.47 380.78,-85.47 734.41,-166.32 997.93,47.16 997.93,47.16 527.66,578.13 100.84,581.1 100.84,581.1 -105.7,272.23 135.21,517.4 135.21,517.4 L 4160.41,4754.75"
         style="fill:#ffffff;fill-opacity:1;fill-rule:nonzero;stroke:none"
         id="path30" />
      <path
         d="m 6236.59,4134 c 0,0 279.75,157.19 297.94,368.11 l 135.19,-367.09 -433.13,-1.02"
         style="fill:#1e1b14;fill-opacity:1;fill-rule:nonzero;stroke:none"
         id="path32" />
      <path
         d="m 8414.47,5016.28 c 0,0 -404.31,495.25 110.62,1195.47 -151.44,701.14 -553.63,1596.24 -1737.38,1674.8 C 5604.02,7965.12 3745.5,7043.18 3990.04,4731.48 l 4424.43,284.8"
         style="fill:#ffffff;fill-opacity:1;fill-rule:nonzero;stroke:none"
         id="path34" />
      <path
         d="m 8265.79,5743.82 c 0,0 -1104.66,1302.36 -3556.18,-258.76 0,0 -257.46,-478.21 610.33,-525.56 l -1019.15,-28.08 c 0,0 -205.94,-1173.22 975.63,-963.29 0,0 -538.15,-259.79 -776.83,-223.84 -281.87,42.5 -544.73,451.66 -549.92,663.64 l 20.49,180.08 155.57,170.24 -123.64,-3.83 -112.07,821.17 399.57,2281.11 2140.71,408.62 1483.52,-748.19 c 0,0 869.88,-914.63 770.98,-917.7 -98.88,-3.06 -151.61,-698.8 -419.01,-855.61"
         style="fill:#bcbbb9;fill-opacity:1;fill-rule:nonzero;stroke:none"
         id="path36" />
      <path
         d="m 4861,4981.78 753.15,-18.99 c 209.52,-284.71 387.22,-427.73 578.11,-554.61 -10.56,-22.54 -22.54,-44.97 -36.51,-66.95 0,0 -207.51,-276.54 -694.59,-248.4 -422.64,24.42 -745.5,260.28 -977.41,826.01 l 377.25,62.94"
         style="fill:#131513;fill-opacity:1;fill-rule:nonzero;stroke:none"
         id="path38" />
      <path
         d="m 6040.93,4545.9 c 0,-68.11 -110.45,-123.33 -246.68,-123.33 -136.24,0 -246.67,55.22 -246.67,123.33 0,68.12 110.43,123.34 246.67,123.34 136.23,0 246.68,-55.22 246.68,-123.34"
         style="fill:#ed1d24;fill-opacity:1;fill-rule:nonzero;stroke:none"
         id="path40" />
      <path
         d="m 5614.15,4962.79 603.33,-15.12 c 0,0 95.78,-280.09 -25.22,-539.49 -228.74,84.98 -420.72,260.84 -578.11,554.61"
         style="fill:#100f0d;fill-opacity:1;fill-rule:nonzero;stroke:none"
         id="path42" />
      <path
         d="m 7214.36,5003.04 c 491.78,47.59 961.98,27.47 961.98,27.47 47.46,-484.77 -458.93,-878.55 -707.22,-886.25 -223.57,-6.93 -645.99,190.17 -754.24,315.43 187.71,87.2 344.04,293.81 499.48,543.35"
         style="fill:#131513;fill-opacity:1;fill-rule:nonzero;stroke:none"
         id="path44" />
      <path
         d="m 7543.36,4545.9 c 0,-68.11 -110.43,-123.33 -246.66,-123.33 -136.23,0 -246.68,55.22 -246.68,123.33 0,68.12 110.45,123.34 246.68,123.34 136.23,0 246.66,-55.22 246.66,-123.34"
         style="fill:#ed1d24;fill-opacity:1;fill-rule:nonzero;stroke:none"
         id="path46" />
      <path
         d="m 6688.84,4919.58 c 163.46,39.74 345.92,66.08 525.52,83.46 -89.92,-254.93 -311.77,-456.15 -499.48,-543.35 -11.93,13.85 -20.25,26.83 -23.79,38.56 -36.08,117.75 -2.25,421.33 -2.25,421.33"
         style="fill:#100f0d;fill-opacity:1;fill-rule:nonzero;stroke:none"
         id="path48" />
      <path
         d="m 3271.96,5126.98 c -215.41,2583.98 1793.72,4406 3940.09,3478.55 2146.31,-927.44 1828.07,-3674.34 1828.07,-3674.34 0,0 29.26,-13.53 57.99,-12.62 -168.85,-309.12 -350.15,-503.22 -516.65,-625.04 -13.26,37.76 -26.1,75.63 -38.33,113.79 -0.75,4.25 -1.75,8.49 -2.53,12.71 417.15,344.58 265.24,633.56 265.24,633.56 -517.43,1590.15 -1565,1925.03 -1565,1925.03 -46.86,351.49 -432.25,699.72 -432.25,699.72 -21.91,-225.95 85.33,-553.93 -64.95,-693.51 C 6357.1,6908.04 6014.35,6811 6014.35,6811 c -203,274.58 -507.89,351.52 -507.89,351.52 18.42,-129.03 107.61,-450.39 107.61,-450.39 0,0 -1467.25,-794.24 -2161.89,-2337.85 l -180.22,752.7"
         style="fill:#232221;fill-opacity:1;fill-rule:nonzero;stroke:none"
         id="path50" />
      <path
         d="m 8871.41,4970.58 c 15.01,-42.03 -329.58,1450.12 -1525.61,2106.06 0,0 -121.49,403.72 -537.21,601.7 0,0 274.43,-291.97 432.25,-699.72 0,0 1115.52,-563.68 1630.57,-2008.04"
         style="fill:#100f0d;fill-opacity:1;fill-rule:nonzero;stroke:none"
         id="path52" />
      <path
         d="m 6669.72,4135.02 -433.13,-1.02 433.13,1.02"
         style="fill:#1e1b14;fill-opacity:1;fill-rule:nonzero;stroke:none"
         id="path54" />
      <path
         d="m 1835.8,8512.86 c 0,0 543.33,290.94 1204.01,138.16 0,0 -76.93,-1512.2 1750.42,-2173.35 0,0 -853.96,-397.75 -1488.28,-1494.06 0,0 -706.99,1648.75 -407.56,3167.89 0,0 -296.66,386.83 -1058.59,361.36"
         style="fill:#1c1b1a;fill-opacity:1;fill-rule:nonzero;stroke:none"
         id="path56" />
      <path
         d="m 6393.44,4957.71 c -433.64,1363.73 -2029.65,440.27 -1866.94,329.04 0,0 -36.79,-537.26 1796.51,-657.3 30.26,88.19 127.2,216.37 70.43,328.26"
         style="fill:#ffffff;fill-opacity:1;fill-rule:nonzero;stroke:none"
         id="path58" />
      <path
         d="m 6244.16,5277.89 c 316.79,-505.82 -25.09,-584.43 -134.1,-573.14 -1373.03,142.01 -1592.85,755.21 -1706.7,598.48 -127.78,-175.83 432.96,-803 1835.18,-737.81 189.54,8.8 284.6,133.11 265.44,304.01 -16.27,145.34 -176.47,357.59 -259.82,408.46"
         style="fill:#e1ddd2;fill-opacity:1;fill-rule:nonzero;stroke:none"
         id="path60" />
      <path
         d="m 6617.62,4952.36 c 349.31,1357.25 1976.54,382.89 1816.52,278.88 0,0 24.52,-519.33 -1755.08,-597.19 -27.5,85.77 -118.81,211.49 -61.44,318.31"
         style="fill:#ffffff;fill-opacity:1;fill-rule:nonzero;stroke:none"
         id="path62" />
      <path
         d="m 6768.92,5258.36 c -317.53,-481.72 12.21,-564.68 118.11,-556.06 1333.91,108.62 1559.72,695.94 1666.81,542.31 120.24,-172.4 -436.34,-766.12 -1794.21,-674.11 -183.56,12.46 -273.13,134.38 -251.04,298.95 18.81,139.96 178.51,341.51 260.33,388.91"
         style="fill:#e1ddd2;fill-opacity:1;fill-rule:nonzero;stroke:none"
         id="path64" />
    </g>
  </g>
</svg>
